<?xml version="1.0" standalone="no"?>
<!DOCTYPE svg PUBLIC "-//W3C//DTD SVG 20010904//EN"
 "http://www.w3.org/TR/2001/REC-SVG-20010904/DTD/svg10.dtd">
<svg version="1.0" xmlns="http://www.w3.org/2000/svg"
 width="1024.000000pt" height="1024.000000pt" viewBox="0 0 1024.000000 1024.000000"
 preserveAspectRatio="xMidYMid meet">

<g transform="translate(0.000000,1024.000000) scale(0.100000,-0.100000)"
fill="#000000" stroke="none">
<path d="M5162 9500 c-96 -14 -171 -38 -234 -76 -31 -19 -61 -34 -67 -34 -6 0
-35 13 -64 30 -188 106 -453 66 -679 -101 -107 -80 -184 -178 -259 -334 -61
-126 -128 -190 -290 -279 -69 -38 -154 -91 -188 -118 -144 -114 -250 -311
-267 -497 -5 -55 -4 -69 10 -80 30 -25 53 13 75 124 46 224 139 343 376 485
77 46 161 103 186 127 45 42 69 53 69 32 0 -5 -24 -36 -52 -67 l-53 -56 39 22
c38 22 54 23 42 3 -8 -12 -173 -121 -196 -129 -8 -2 -28 -17 -45 -32 -16 -15
-43 -35 -60 -43 -26 -14 -27 -16 -8 -17 12 0 24 -4 27 -8 3 -4 -4 -42 -15 -83
-12 -44 -24 -131 -28 -214 -10 -158 -26 -217 -91 -325 -81 -137 -205 -226
-415 -300 -117 -40 -189 -84 -236 -142 -38 -48 -66 -114 -54 -126 3 -4 25 4
48 17 131 75 146 81 229 81 194 0 477 101 595 212 67 64 97 125 127 263 29
131 46 178 98 266 47 81 83 118 100 101 8 -8 0 -31 -30 -89 -43 -83 -69 -165
-102 -325 -37 -183 -99 -261 -273 -347 -108 -53 -292 -116 -442 -151 -173 -40
-294 -88 -347 -138 -49 -45 -28 -85 28 -55 106 56 149 75 224 98 438 136 574
192 688 284 34 28 66 51 71 51 5 0 14 -7 22 -16 11 -13 3 -24 -54 -79 -94 -90
-227 -152 -577 -270 -310 -105 -384 -138 -435 -197 -50 -59 -62 -114 -44 -207
21 -113 17 -196 -11 -256 -31 -63 -103 -136 -168 -169 -78 -39 -87 -35 -49 25
27 43 32 63 35 123 4 88 -11 121 -53 121 l-30 0 -1 -80 c0 -97 -25 -151 -91
-201 -59 -45 -130 -58 -268 -50 -311 18 -361 19 -446 2 -179 -36 -332 -144
-400 -282 -25 -50 -32 -80 -36 -147 -6 -95 3 -135 47 -196 43 -59 108 -93 180
-95 57 -1 60 -2 88 -42 59 -81 112 -105 188 -84 108 31 224 196 172 248 -26
26 -47 12 -88 -57 -64 -110 -121 -138 -172 -83 -33 35 -48 82 -48 147 0 91 81
185 198 227 63 23 170 22 317 -2 329 -54 514 5 731 233 112 117 161 182 214
280 23 42 45 77 50 77 19 0 45 -97 45 -170 0 -149 -91 -274 -275 -377 -102
-58 -120 -63 -120 -34 0 21 42 57 133 115 39 25 57 43 55 54 -6 33 -36 22
-119 -41 -145 -110 -262 -164 -554 -257 -230 -73 -348 -185 -484 -460 -66
-134 -106 -179 -206 -233 -77 -41 -85 -51 -71 -87 4 -10 -13 -27 -55 -55 -83
-55 -166 -147 -203 -225 -29 -60 -31 -73 -31 -170 0 -103 1 -107 42 -191 59
-121 124 -189 227 -239 73 -35 95 -53 226 -187 177 -180 211 -237 218 -354 8
-142 -48 -238 -176 -301 -61 -30 -74 -33 -162 -33 -123 0 -182 20 -254 86
-134 122 -110 308 51 389 39 20 63 24 128 25 79 0 80 0 83 27 4 37 -27 51
-114 51 -126 -1 -228 -64 -284 -175 -62 -125 -32 -279 74 -376 163 -150 465
-147 628 5 142 134 157 352 36 534 -23 35 -92 114 -153 174 -61 61 -125 132
-143 159 -72 112 -98 249 -68 366 29 112 156 320 265 433 127 133 207 175 571
297 135 45 290 102 345 126 55 24 105 44 112 44 7 0 13 -11 13 -24 0 -48 -142
-116 -500 -241 -357 -123 -428 -168 -531 -336 -58 -94 -82 -199 -83 -359 -1
-114 3 -146 23 -210 30 -97 45 -125 131 -245 117 -163 147 -234 174 -418 8
-54 20 -105 26 -112 11 -14 46 -27 103 -39 41 -10 36 -42 -42 -227 -85 -203
-201 -511 -201 -533 0 -8 9 -20 21 -26 28 -15 43 -1 63 58 63 185 775 1961
841 2097 118 243 213 349 389 436 56 27 109 49 119 49 10 0 26 -14 35 -31 57
-104 181 -275 253 -350 46 -47 147 -134 224 -192 77 -59 174 -134 215 -168
204 -168 417 -274 647 -320 191 -38 563 -37 610 3 19 15 16 46 -5 57 -11 6
-50 5 -107 -1 -50 -6 -151 -8 -225 -5 -340 14 -570 103 -870 338 -58 46 -154
121 -215 167 -189 145 -291 254 -401 429 -70 112 -70 126 1 152 91 34 100 31
140 -49 72 -143 127 -212 155 -195 16 10 12 30 -24 117 -64 155 -57 219 10 86
88 -175 237 -380 379 -523 50 -50 152 -137 227 -194 112 -85 142 -102 161 -97
14 3 28 14 32 23 8 21 -16 44 -209 197 -137 109 -186 159 -186 189 0 23 26 22
157 -8 197 -44 301 -56 533 -62 179 -4 248 -2 340 11 278 41 519 114 745 226
155 77 244 139 345 242 47 48 72 67 84 62 37 -14 13 -60 -127 -234 -233 -290
-481 -457 -877 -592 -226 -76 -343 -97 -552 -98 -164 -1 -195 -6 -204 -32 -17
-54 71 -67 317 -49 217 17 338 45 554 128 217 84 400 184 541 296 104 83 278
275 380 418 l79 111 52 -6 c73 -8 208 -52 270 -87 69 -39 148 -112 178 -163
43 -74 85 -186 151 -406 71 -236 231 -804 289 -1025 56 -215 205 -724 316
-1078 32 -104 59 -197 59 -208 0 -13 -7 -19 -23 -19 -52 0 -62 -20 -65 -134
-2 -58 -6 -106 -8 -106 -2 0 -24 15 -49 34 -67 52 -145 78 -252 84 -75 4 -97
2 -117 -12 -14 -9 -45 -16 -70 -16 -53 0 -75 -24 -52 -55 12 -16 18 -17 57 -7
126 32 234 22 345 -33 76 -37 144 -101 144 -135 0 -11 -2 -20 -4 -20 -2 0 -30
16 -62 35 -77 46 -146 66 -233 66 -99 0 -161 -19 -161 -51 0 -33 23 -41 80
-29 139 30 282 -37 345 -160 44 -87 61 -265 29 -292 -15 -12 -20 -9 -43 21
-60 80 -133 147 -199 183 -83 44 -203 77 -282 77 -37 0 -62 5 -69 14 -8 10 -9
76 -1 257 24 569 60 1555 60 1652 0 91 -3 108 -22 137 -54 78 -103 89 -410 90
-177 0 -188 1 -188 19 0 15 15 21 83 35 195 38 359 42 450 10 26 -9 45 -11 57
-4 47 25 22 70 -52 92 -50 14 -243 14 -367 0 -46 -6 -90 -8 -98 -5 -17 7 -17
59 2 114 8 24 62 113 119 197 108 160 117 186 70 198 -28 7 -29 6 -147 -161
-100 -140 -138 -208 -181 -324 -19 -51 -37 -96 -41 -99 -22 -22 -50 118 -42
210 9 110 98 274 234 433 40 47 41 79 2 83 -22 3 -36 -8 -78 -55 -149 -170
-227 -313 -246 -454 -4 -27 0 -82 11 -140 9 -52 17 -105 18 -119 l1 -25 -1715
-5 c-1609 -5 -1717 -6 -1747 -22 -18 -10 -45 -35 -60 -55 l-28 -37 2 -235 c2
-238 28 -1091 38 -1276 5 -89 4 -104 -14 -132 -12 -18 -26 -33 -33 -33 -7 0
-38 40 -68 88 -88 140 -244 285 -332 307 -20 5 -29 2 -37 -13 -16 -30 -7 -43
57 -82 178 -107 321 -334 296 -467 -9 -47 -25 -37 -41 27 -24 95 -63 161 -142
241 -67 66 -92 83 -211 142 -154 76 -281 117 -308 101 -9 -6 -17 -22 -17 -35
0 -21 11 -28 100 -59 202 -71 303 -142 361 -253 20 -40 52 -91 71 -114 18 -23
40 -58 48 -77 15 -36 21 -146 8 -146 -5 1 -20 18 -35 40 -15 22 -46 49 -70 61
-35 18 -52 21 -108 15 -56 -5 -72 -2 -118 19 -30 14 -65 34 -79 45 -28 22 -58
26 -68 10 -11 -18 27 -80 68 -110 66 -48 120 -65 166 -51 64 19 96 14 130 -20
59 -58 64 -149 14 -222 -15 -22 -44 -69 -63 -105 -19 -36 -48 -75 -63 -86
l-29 -21 -28 31 c-31 35 -46 96 -35 144 4 16 22 53 41 80 19 28 32 55 29 60
-11 17 -43 11 -73 -15 -17 -14 -33 -25 -36 -25 -17 0 -192 397 -393 895 -128
318 -172 423 -191 452 -30 48 -142 12 -142 -44 0 -46 145 -458 270 -767 62
-154 63 -169 10 -123 -64 55 -179 80 -242 54 -50 -21 -65 -49 -71 -134 -6 -76
-21 -116 -57 -148 -78 -70 -94 -183 -46 -310 25 -64 27 -77 21 -161 -9 -110 7
-154 79 -224 25 -24 46 -48 46 -52 0 -4 -69 -8 -154 -8 -114 0 -156 -3 -164
-13 -6 -7 -12 -49 -14 -92 l-3 -80 -149 -3 c-90 -1 -155 -7 -163 -14 -24 -20
-16 -57 15 -65 15 -5 2010 -8 4434 -8 4148 0 4408 1 4424 17 15 14 16 22 6 43
l-12 25 -465 0 -465 0 0 688 0 687 132 225 c162 277 168 288 168 320 0 14 9
43 20 65 23 45 25 66 8 83 -23 23 -48 12 -84 -37 -21 -28 -53 -57 -74 -66 -39
-18 -61 -49 -251 -367 -52 -87 -95 -154 -97 -150 -1 5 18 61 42 125 79 203
166 457 166 482 0 56 -74 85 -119 48 -22 -18 -101 -195 -222 -498 l-64 -160
-5 345 c-4 278 -8 350 -20 370 -8 14 -19 54 -25 90 l-11 65 -35 0 c-34 0 -34
0 -40 -55 -3 -30 -16 -74 -28 -98 -21 -41 -22 -61 -29 -370 -5 -180 -11 -333
-16 -340 -5 -8 -34 -12 -86 -12 l-78 0 -16 43 c-8 23 -41 119 -72 212 -78 232
-105 291 -137 297 -14 3 -39 -1 -56 -8 -30 -12 -31 -12 -39 19 -5 18 -35 120
-67 227 -110 374 -117 409 -78 452 26 29 80 42 113 28 22 -9 30 -20 32 -43 4
-45 33 -46 110 -5 77 41 154 115 197 191 31 54 51 72 51 45 0 -22 68 -168 96
-209 31 -45 50 -49 66 -14 9 21 6 34 -25 92 -19 37 -49 103 -67 145 -21 52
-42 85 -61 99 -17 12 -29 29 -29 43 0 47 -33 115 -81 170 -62 69 -139 124
-289 206 -142 77 -142 77 -213 147 -80 79 -167 213 -222 343 -51 121 -62 185
-32 185 14 0 29 -25 61 -100 127 -300 210 -395 448 -515 281 -142 369 -231
474 -477 110 -257 215 -379 389 -453 53 -22 74 -25 180 -25 111 0 125 2 180
28 85 40 119 70 149 129 47 94 25 214 -46 258 -43 26 -63 25 -83 -2 -15 -22
-14 -24 24 -58 22 -19 42 -45 46 -57 20 -70 -48 -168 -141 -202 -145 -55 -327
-6 -451 121 -61 63 -94 117 -152 253 -80 184 -121 253 -190 323 -58 58 -151
126 -240 174 -51 28 -36 38 32 21 61 -14 116 -14 309 3 82 8 127 -6 167 -51
42 -48 51 -87 62 -280 14 -251 29 -302 79 -275 22 12 22 16 15 99 -4 47 -11
151 -15 231 -9 158 -16 189 -55 255 -39 67 -88 102 -195 136 -126 41 -221 92
-290 155 -64 60 -113 141 -108 181 6 50 33 39 93 -37 107 -134 230 -203 365
-204 178 -1 316 129 328 308 10 163 -78 301 -247 386 -85 42 -121 70 -121 92
0 26 36 23 125 -12 292 -112 426 -350 335 -593 -32 -85 -103 -174 -185 -230
-38 -26 -74 -52 -78 -56 -13 -13 11 -51 30 -51 59 0 191 106 254 203 127 195
112 430 -38 609 -95 114 -200 175 -395 229 -199 55 -258 100 -344 261 -63 118
-128 189 -207 228 -88 43 -140 50 -422 59 -289 10 -352 22 -505 97 -78 39
-110 62 -176 128 -89 89 -132 163 -160 276 -14 55 -15 77 -5 144 11 80 33 132
51 121 6 -4 10 -46 10 -94 0 -151 51 -271 161 -383 54 -53 87 -76 170 -116
150 -73 204 -83 479 -93 139 -5 262 -14 302 -23 150 -33 252 -110 340 -254
100 -164 193 -232 321 -232 137 0 217 98 217 265 0 104 -27 172 -96 240 -64
64 -170 119 -264 135 -36 6 -83 15 -105 21 -64 15 -141 27 -277 44 -298 36
-426 118 -554 358 -36 65 -71 113 -131 174 -47 47 -85 96 -89 111 -19 86 -29
108 -55 133 -16 15 -40 30 -54 33 -120 30 -199 89 -241 179 -29 63 -30 81 -4
107 23 23 58 19 102 -11 14 -11 40 -19 57 -19 47 0 95 -24 124 -62 24 -31 57
-129 57 -170 0 -49 46 -136 103 -196 62 -63 159 -122 204 -122 12 0 23 -1 23
-3 0 -32 28 -133 47 -171 53 -105 185 -211 256 -204 24 2 33 8 35 25 3 18 -7
27 -45 47 -86 44 -127 80 -161 143 -18 34 -32 75 -32 92 l0 31 88 0 c245 0
422 129 462 335 24 121 -21 247 -120 338 -75 70 -143 97 -243 97 -85 0 -157
-29 -200 -79 -30 -36 -33 -51 -15 -69 17 -17 43 -15 59 5 8 9 37 27 64 39 72
34 136 32 213 -7 147 -73 204 -242 131 -388 -57 -115 -181 -183 -334 -185
l-80 -1 3 80 c6 119 -33 199 -132 273 -41 31 -62 59 -101 131 -26 51 -66 112
-87 136 -42 48 -127 93 -213 115 -122 30 -221 63 -256 86 -51 32 -91 87 -146
202 -68 142 -122 194 -294 283 -150 77 -249 156 -249 198 0 40 28 33 96 -23
44 -37 102 -70 172 -101 188 -82 240 -128 326 -283 82 -150 135 -201 254 -246
187 -69 300 -59 394 35 117 117 100 339 -32 435 -74 54 -159 68 -174 29 -10
-27 5 -45 48 -56 66 -18 94 -36 120 -82 35 -59 42 -113 22 -180 -59 -204 -371
-158 -483 72 l-28 56 0 240 c-1 259 -4 277 -60 351 -32 42 -76 68 -199 118
-185 76 -240 122 -419 349 -188 239 -406 354 -702 371 -49 2 -118 1 -153 -4z
m251 -91 c98 -14 157 -34 259 -86 109 -56 194 -134 333 -303 145 -178 218
-234 404 -312 158 -65 211 -123 167 -183 -13 -19 -16 -18 -63 26 -56 52 -108
78 -125 61 -8 -8 7 -30 55 -82 62 -65 80 -101 59 -114 -5 -3 -29 15 -53 41
-55 57 -168 132 -245 163 -76 30 -149 78 -200 132 -47 49 -49 52 -138 240 -55
116 -75 147 -125 196 -107 106 -253 158 -468 169 -109 6 -113 7 -113 29 0 13
7 24 18 27 33 9 164 7 235 -4z m-710 -36 c62 -25 117 -68 117 -93 0 -32 -17
-32 -81 1 -80 42 -195 51 -294 24 -145 -39 -301 -162 -410 -324 -63 -93 -125
-151 -125 -118 0 20 55 152 81 193 57 92 159 188 269 253 147 87 321 112 443
64z m773 -107 c91 -29 185 -86 228 -137 33 -39 90 -157 101 -209 13 -63 67
-194 107 -256 43 -68 44 -76 23 -94 -13 -10 -19 -9 -36 6 -41 37 -93 140 -145
287 -29 83 -68 172 -86 199 -84 123 -248 188 -475 188 -106 0 -172 -20 -234
-70 -44 -35 -59 -38 -59 -10 0 26 79 84 150 110 48 17 74 19 200 16 123 -3
157 -7 226 -30z m-820 -181 c19 -15 19 -15 0 -30 -10 -8 -44 -19 -75 -26 -80
-16 -290 -93 -398 -145 -51 -25 -122 -67 -159 -94 -66 -50 -84 -55 -84 -20 0
73 364 260 614 315 81 17 79 17 102 0z m569 -59 c194 -62 299 -190 366 -451
47 -183 103 -278 193 -330 22 -13 79 -38 126 -56 155 -60 240 -131 302 -253
67 -133 78 -354 19 -391 -25 -15 -43 17 -37 65 8 57 -14 178 -45 252 -29 69
-90 151 -139 187 -22 16 -70 41 -107 56 -152 62 -194 85 -240 132 -67 67 -105
145 -153 313 -61 210 -110 291 -227 371 -46 32 -138 69 -171 69 -10 0 -27 6
-37 14 -16 12 -17 16 -6 30 19 22 68 20 156 -8z m-689 -97 c10 -17 -19 -39
-202 -152 -190 -116 -248 -157 -345 -243 -113 -101 -210 -223 -281 -353 -19
-35 -53 -42 -61 -11 -6 24 55 155 114 243 65 95 241 264 334 319 72 43 410
207 427 208 4 0 10 -5 14 -11z m576 -92 c90 -69 147 -164 209 -350 71 -210
123 -295 225 -362 52 -35 109 -52 242 -74 186 -30 301 -164 352 -408 14 -69 9
-108 -17 -117 -26 -10 -34 5 -54 104 -20 100 -60 196 -103 248 -52 61 -103 82
-237 98 -160 18 -226 48 -318 142 -82 83 -118 150 -182 339 -58 171 -92 239
-154 310 -78 89 -52 138 37 70z m-430 -62 c-5 -25 -70 -120 -136 -197 -76 -90
-179 -154 -374 -232 -90 -36 -168 -66 -173 -66 -5 0 -9 9 -9 19 0 33 54 67
190 120 186 72 292 144 380 256 77 99 102 126 114 122 6 -2 9 -12 8 -22z m208
-88 c0 -57 -8 -133 -21 -193 -37 -175 -15 -402 56 -567 74 -172 167 -284 291
-349 89 -47 163 -64 333 -78 146 -12 210 -31 231 -71 29 -54 -23 -297 -96
-444 -24 -49 -64 -117 -89 -150 -106 -142 -298 -309 -425 -369 -60 -29 -73
-31 -175 -31 -102 0 -114 2 -175 31 -128 61 -281 193 -386 333 -97 130 -155
259 -201 451 -21 88 -32 723 -12 746 7 8 64 49 128 91 160 106 264 209 366
363 104 156 130 206 146 275 7 30 16 55 21 55 4 0 8 -42 8 -93z m-204 -101
c-20 -48 -99 -169 -149 -229 -66 -80 -315 -264 -341 -254 -28 11 -6 34 129
136 145 110 191 156 268 271 83 125 129 163 93 76z m374 -96 c6 -11 22 -82 35
-158 27 -149 32 -170 64 -250 62 -156 185 -257 347 -285 40 -7 64 -16 64 -24
0 -31 -184 -1 -274 44 -103 52 -192 180 -231 332 -19 74 -45 256 -45 319 0 46
21 58 40 22z m-86 -122 c8 -131 36 -267 77 -384 35 -98 35 -103 8 -78 -71 64
-121 237 -123 424 -1 123 5 167 22 156 5 -3 12 -56 16 -118z m1428 -491 c39
-80 112 -166 170 -203 54 -34 126 -59 256 -88 122 -27 198 -62 240 -111 15
-17 52 -75 82 -129 30 -54 66 -106 79 -115 60 -40 119 -107 130 -149 13 -45 6
-128 -11 -138 -17 -11 -137 58 -174 99 -46 50 -70 105 -88 199 -19 101 -37
139 -86 187 -51 50 -92 65 -255 96 -163 31 -233 64 -307 144 -79 85 -147 269
-105 284 23 8 33 -3 69 -76z m-2299 -24 c26 -266 -4 -404 -125 -581 -61 -90
-90 -154 -152 -332 -26 -74 -67 -176 -91 -225 -44 -92 -51 -101 -223 -261 -40
-37 -83 -92 -117 -149 -69 -115 -83 -130 -134 -151 -30 -12 -58 -37 -103 -93
-212 -264 -344 -337 -713 -396 -201 -32 -298 -61 -382 -112 -113 -70 -180
-145 -268 -298 -32 -55 -67 -113 -79 -130 -34 -49 -32 -6 4 83 63 150 122 254
186 321 114 121 243 178 486 211 226 32 341 70 476 159 138 91 224 195 324
396 91 181 109 206 248 350 129 135 155 176 220 360 23 66 55 138 70 160 16
22 78 88 139 147 158 152 182 208 196 473 7 119 10 135 23 135 5 0 12 -30 15
-67z m-599 -72 c13 -21 -159 -231 -190 -231 -26 0 -15 23 44 89 32 36 71 85
87 109 26 40 48 52 59 33z m1759 -75 c70 -41 149 -57 342 -70 164 -12 189 -16
238 -40 57 -27 141 -108 135 -128 -2 -6 -11 -16 -20 -22 -13 -8 -28 1 -72 41
-72 66 -117 80 -305 99 -167 16 -219 28 -298 68 -57 29 -86 53 -78 67 8 13 11
12 58 -15z m1087 -292 c88 -25 148 -76 193 -164 20 -41 42 -101 49 -133 10
-55 10 -60 -11 -80 -21 -21 -23 -21 -36 -4 -7 10 -16 39 -20 65 -16 105 -88
206 -175 244 -28 12 -81 22 -140 26 -82 6 -95 10 -98 26 -2 10 2 22 10 27 22
14 168 10 228 -7z m-2912 -333 c-4 -21 -71 -57 -234 -126 -151 -64 -201 -94
-262 -155 -61 -62 -86 -110 -116 -225 -48 -181 -125 -314 -253 -436 -88 -83
-150 -120 -238 -142 -111 -28 -181 -30 -315 -8 -251 41 -330 38 -446 -19 -119
-58 -184 -149 -209 -292 -7 -45 -26 -49 -91 -17 -85 41 -109 166 -54 282 31
65 105 144 174 186 129 77 251 94 495 66 132 -15 170 -15 270 -5 177 18 255
36 336 75 137 66 217 161 278 330 41 114 53 138 101 201 64 86 128 129 294
199 81 34 169 73 197 87 52 27 78 27 73 -1z m2862 -51 c12 -7 15 -31 15 -107
0 -87 -6 -119 -52 -288 -60 -218 -77 -333 -63 -440 20 -155 101 -295 224 -389
62 -47 113 -70 276 -125 198 -67 300 -138 392 -273 52 -78 69 -118 57 -140
-20 -36 -47 -20 -101 59 -99 147 -187 209 -393 273 -55 18 -138 50 -185 72
-256 122 -399 429 -345 741 9 54 32 150 51 215 46 156 64 241 64 310 0 36 6
66 16 80 17 24 22 26 44 12z m-2820 -170 c0 -13 -51 -70 -136 -153 -74 -72
-151 -158 -171 -189 -40 -65 -59 -75 -49 -26 13 65 71 139 204 264 73 68 137
124 143 124 5 0 9 -9 9 -20z m3553 -47 c26 -25 81 -96 121 -157 89 -135 151
-205 225 -255 99 -66 146 -83 351 -127 140 -30 156 -36 165 -63 8 -26 35 -29
125 -13 96 17 157 10 234 -26 104 -49 173 -137 183 -234 14 -143 -72 -233
-190 -198 -56 16 -131 95 -182 190 -86 160 -199 236 -443 295 -79 20 -171 49
-205 66 -85 43 -192 155 -296 309 -47 69 -104 148 -128 176 -75 89 -44 119 40
37z m-256 -75 c71 -43 174 -185 160 -221 -13 -34 -45 -18 -81 41 -47 77 -85
114 -151 147 -64 31 -70 38 -50 58 18 18 69 8 122 -25z m-2615 -174 c-6 -186
-64 -399 -163 -599 -78 -158 -152 -255 -176 -231 -4 4 14 47 40 94 145 262
223 487 247 713 9 88 20 114 45 105 6 -2 9 -36 7 -82z m1618 -135 c0 -6 -14
-52 -31 -103 -56 -165 -52 -328 13 -484 17 -40 28 -76 24 -79 -12 -12 -54 39
-84 100 -36 74 -56 193 -47 275 15 128 50 236 93 285 17 19 32 22 32 6z
m-1094 -66 c108 -66 295 -174 428 -248 110 -61 147 -101 217 -239 73 -144 106
-187 165 -222 63 -37 131 -52 280 -62 173 -12 212 -32 137 -71 -114 -57 -286
-64 -423 -16 -147 52 -139 50 -158 32 -25 -25 -7 -46 67 -83 87 -43 167 -59
291 -58 120 1 194 18 306 69 42 19 86 35 98 35 26 0 85 -35 92 -55 31 -79
-233 -264 -536 -375 -251 -92 -494 -134 -770 -134 -279 1 -511 36 -755 114
-96 31 -102 35 -168 104 -85 90 -164 214 -173 273 -9 62 3 71 176 143 209 87
339 154 397 205 86 75 108 155 123 445 8 161 9 165 35 187 14 13 34 23 44 23
10 0 67 -30 127 -67z m2025 -200 c132 -128 274 -215 386 -238 38 -7 141 -16
231 -20 238 -9 326 -37 440 -141 76 -68 139 -155 187 -255 28 -59 37 -92 42
-157 7 -93 -8 -132 -52 -132 -35 0 -48 31 -40 94 12 96 -47 251 -130 339 -31
32 -41 34 -50 7 -8 -26 -21 -25 -88 5 -90 42 -176 55 -357 55 -168 0 -232 10
-297 44 -52 26 -78 82 -59 126 5 11 -11 28 -55 59 -33 24 -100 78 -149 122
-91 82 -127 134 -108 156 13 16 19 12 99 -64z m-349 17 c30 -40 132 -114 280
-205 36 -22 42 -42 16 -58 -13 -9 -40 4 -135 61 -140 85 -194 129 -217 177
-13 27 -14 39 -6 55 15 27 21 24 62 -30z m-463 -90 c11 -102 31 -170 77 -262
22 -45 25 -61 16 -70 -42 -42 -141 201 -142 350 0 56 16 100 30 86 5 -5 13
-52 19 -104z m-2219 -49 c0 -63 -121 -215 -228 -287 -33 -22 -119 -71 -193
-110 -116 -60 -144 -79 -210 -146 -42 -43 -81 -78 -87 -78 -22 0 -21 35 3 75
47 81 148 156 335 250 148 74 226 140 290 245 45 74 59 90 76 83 8 -3 14 -17
14 -32z m4666 -790 c113 -53 174 -137 182 -251 12 -168 -123 -291 -287 -260
-135 25 -238 132 -271 280 -19 86 -13 101 44 123 27 10 61 27 77 37 46 33 76
26 107 -25 28 -47 50 -56 72 -30 12 15 11 47 -5 123 -9 41 1 41 81 3z m-822
-29 c51 -71 128 -139 183 -163 108 -48 118 -54 121 -78 4 -23 2 -24 -42 -19
-74 9 -154 54 -231 132 -84 85 -115 137 -96 160 20 24 26 21 65 -32z m-4884
-121 c0 -22 -89 -85 -210 -147 -56 -29 -108 -70 -205 -162 -71 -68 -157 -149
-190 -180 -36 -35 -72 -81 -90 -117 -28 -56 -30 -67 -30 -175 0 -130 15 -186
71 -262 42 -59 139 -123 226 -149 60 -18 69 -24 66 -43 -3 -18 -9 -21 -54 -20
-105 3 -282 126 -337 236 -93 185 -69 413 56 548 18 19 75 72 127 117 52 44
113 100 135 123 56 59 110 94 265 176 146 77 170 85 170 55z m-1040 -110 c0
-5 -20 -33 -44 -62 -57 -70 -148 -243 -178 -339 -20 -64 -23 -95 -22 -212 1
-130 -1 -138 -19 -138 -41 0 -133 132 -162 234 -54 185 40 336 285 461 132 67
140 70 140 56z m928 -171 c1 -8 -22 -34 -54 -59 -163 -127 -203 -363 -83 -487
34 -35 35 -67 3 -72 -31 -4 -67 30 -105 100 -32 60 -34 68 -34 163 1 113 16
160 83 248 68 90 181 154 190 107z m5125 -57 c84 -77 240 -173 329 -202 43
-14 60 -32 49 -50 -13 -20 -79 -5 -171 40 -107 52 -184 105 -247 172 -50 53
-62 75 -46 90 13 14 26 6 86 -50z m134 -742 c13 -19 28 -52 34 -75 14 -52 7
-159 -14 -209 -15 -34 -19 -37 -37 -27 -17 9 -19 16 -13 53 15 79 9 159 -16
219 -12 31 -20 62 -16 68 12 19 38 6 62 -29z m-785 -170 c47 -24 50 -51 38
-372 -30 -854 -49 -1341 -60 -1614 -5 -126 -12 -331 -16 -455 -4 -124 -11
-233 -16 -242 -8 -17 -114 -18 -2011 -18 -1916 0 -2003 1 -2013 18 -7 11 -14
103 -18 232 -4 118 -18 571 -31 1005 -14 435 -29 919 -34 1076 -5 158 -6 298
-4 312 8 41 42 65 98 70 28 2 948 3 2045 2 1655 -1 2000 -3 2022 -14z m909
-1598 c11 -12 15 -72 17 -265 l3 -248 25 0 24 0 0 234 c0 129 4 246 10 260
l10 26 317 0 c175 0 324 -4 331 -8 7 -5 17 -24 22 -43 12 -41 13 -1131 1
-1203 -15 -88 -7 -86 -362 -86 -358 0 -329 -11 -329 119 0 80 0 81 -25 81 -25
0 -25 -1 -25 -84 0 -104 -4 -116 -41 -116 l-29 0 0 659 c0 363 3 666 6 675 8
21 28 20 45 -1z m-6298 -194 c52 -14 106 -71 157 -164 49 -91 146 -232 199
-288 20 -22 68 -63 108 -93 108 -82 143 -175 88 -229 -28 -29 -45 -31 -88 -9
-144 73 -547 492 -577 599 -14 52 -8 158 10 180 15 18 50 19 103 4z m1191 -81
c4 -35 10 -241 15 -458 4 -217 11 -403 15 -412 5 -10 23 -27 41 -38 31 -19 75
-78 75 -101 0 -5 -57 -9 -134 -9 l-134 0 -4 54 c-7 86 -6 86 -189 86 -183 0
-183 0 -116 79 70 81 159 250 256 484 50 120 91 220 91 223 0 16 63 154 70
154 5 0 11 -28 14 -62z m-1314 -245 c89 -108 245 -280 358 -395 59 -59 103
-110 100 -113 -3 -3 -47 23 -99 58 -90 61 -184 117 -353 209 -102 55 -121 85
-121 183 0 72 20 125 48 125 6 0 37 -30 67 -67z m5756 -52 c131 -75 229 -293
203 -452 -12 -75 -30 -112 -77 -162 -59 -60 -153 -86 -374 -102 -83 -6 -88 -5
-88 14 0 38 22 69 60 84 66 26 67 31 78 343 5 155 12 286 16 293 4 6 34 11 69
11 50 0 72 -6 113 -29z m284 -168 c72 -110 95 -174 95 -273 0 -73 -4 -92 -27
-135 -33 -62 -80 -108 -138 -134 -69 -31 -76 -25 -31 25 68 77 94 144 99 253
5 102 -8 182 -40 244 -36 71 -39 87 -20 87 10 0 35 -28 62 -67z m-5914 -181
c67 -38 137 -80 157 -94 36 -24 147 -125 147 -134 0 -10 -131 -3 -185 11 -81
21 -248 102 -280 135 -31 32 -42 91 -26 134 10 24 16 28 39 23 15 -3 82 -37
148 -75z m5194 -282 c0 -6 -9 -19 -21 -31 -52 -52 45 -49 -1860 -49 -1711 0
-1772 0 -1812 18 -23 11 -53 31 -66 46 l-24 26 1891 0 c1255 0 1892 -3 1892
-10z"/>
<path d="M5990 8888 c0 -38 95 -142 166 -184 30 -18 54 -24 81 -22 l38 3 -75
52 c-41 28 -100 76 -130 107 -53 54 -80 69 -80 44z"/>
<path d="M3775 7107 c-8 -13 -36 -75 -61 -138 -86 -215 -133 -292 -241 -386
-36 -31 -84 -84 -107 -118 -61 -86 -160 -265 -152 -273 18 -18 65 30 116 120
80 140 109 179 187 241 75 59 127 129 173 230 30 66 120 319 120 336 0 19 -19
12 -35 -12z"/>
<path d="M6990 5847 c0 -17 24 -33 74 -49 17 -6 130 -14 251 -18 186 -6 231
-11 288 -29 38 -12 71 -20 74 -17 15 15 -61 66 -132 88 -16 5 -115 14 -220 18
-104 5 -223 12 -262 16 -63 6 -73 5 -73 -9z"/>
<path d="M4911 2719 c-105 -42 -149 -155 -100 -257 76 -156 306 -120 343 55
15 70 -40 170 -111 199 -37 16 -97 17 -132 3z"/>
<path d="M7932 1633 c2 -20 9 -28 23 -28 14 0 21 8 23 28 3 23 0 27 -23 27
-23 0 -26 -4 -23 -27z"/>
<path d="M7925 1500 c-8 -26 6 -43 31 -38 13 2 19 12 19 28 0 34 -40 41 -50
10z"/>
<path d="M7926 1364 c-9 -22 1 -34 30 -34 19 0 24 5 24 25 0 20 -5 25 -24 25
-13 0 -27 -7 -30 -16z"/>
<path d="M7937 1243 c-22 -21 2 -56 31 -46 17 7 15 40 -4 47 -19 7 -19 7 -27
-1z"/>
<path d="M3412 8405 c-42 -35 -77 -122 -112 -276 -37 -167 -65 -223 -152 -315
-61 -64 -68 -75 -58 -93 14 -27 19 -27 66 7 109 79 168 184 215 378 17 71 43
160 59 199 28 69 34 88 31 113 -2 18 -16 15 -49 -13z"/>
<path d="M2294 8360 c-130 -19 -243 -83 -329 -187 -57 -70 -73 -107 -54 -129
21 -25 47 -15 78 30 76 109 167 174 287 202 79 18 139 13 217 -17 100 -38 156
-108 172 -213 9 -57 14 -72 30 -75 27 -5 45 26 45 79 0 127 -94 244 -235 293
-53 18 -148 26 -211 17z"/>
<path d="M1893 7903 c-3 -10 -8 -21 -9 -24 -2 -4 5 -18 17 -32 23 -31 49 -26
49 10 0 52 -42 86 -57 46z"/>
<path d="M2643 7904 c-4 -11 1 -22 12 -31 16 -11 21 -11 33 1 8 8 12 22 9 30
-8 21 -46 21 -54 0z"/>
<path d="M2059 7738 c-10 -19 -8 -25 20 -50 35 -32 53 -35 71 -13 17 20 7 41
-32 65 -41 25 -45 25 -59 -2z"/>
<path d="M2917 7686 c-37 -16 -48 -35 -36 -58 12 -23 20 -23 80 3 39 17 49 26
49 45 0 21 -5 24 -32 23 -18 0 -46 -6 -61 -13z"/>
<path d="M2261 7649 c-12 -31 6 -50 49 -52 40 -2 63 25 40 48 -9 8 -30 17 -48
21 -27 6 -33 3 -41 -17z"/>
<path d="M2686 7634 c-22 -22 -20 -43 6 -53 46 -17 99 16 85 53 -8 21 -70 21
-91 0z"/>
<path d="M2464 7626 c-15 -38 0 -51 56 -51 45 0 55 3 58 18 6 30 -17 47 -65
47 -29 0 -45 -5 -49 -14z"/>
<path d="M1577 7535 c-11 -28 4 -42 51 -49 55 -7 85 12 66 42 -15 24 -109 30
-117 7z"/>
<path d="M1414 7529 c-44 -12 -58 -32 -44 -58 12 -24 13 -24 61 -11 48 14 64
32 49 59 -12 23 -19 24 -66 10z"/>
<path d="M1244 7441 c-33 -20 -104 -96 -104 -111 0 -9 31 -30 45 -30 14 0 115
115 115 130 0 26 -24 31 -56 11z"/>
<path d="M1933 7382 c-7 -4 -15 -27 -19 -50 -9 -57 -38 -98 -102 -146 -43 -32
-52 -44 -50 -65 7 -63 120 -9 188 91 61 88 48 211 -17 170z"/>
<path d="M1077 7227 c-10 -7 -24 -30 -32 -52 -11 -33 -11 -42 0 -54 19 -20 49
-5 68 34 21 45 22 71 1 79 -20 8 -17 8 -37 -7z"/>
<path d="M2450 7131 c-137 -45 -218 -101 -247 -170 -19 -45 -8 -124 21 -158
20 -23 25 -24 45 -14 21 12 22 17 17 69 -4 38 -2 65 6 82 19 36 97 85 175 110
78 25 108 52 93 81 -13 23 -39 23 -110 0z"/>
<path d="M1001 7011 c-6 -11 -11 -38 -11 -60 0 -39 2 -41 30 -41 25 0 30 4 35
34 4 18 5 44 3 57 -4 31 -42 38 -57 10z"/>
<path d="M990 6805 c-15 -18 -6 -78 15 -95 20 -17 55 5 55 35 0 63 -40 97 -70
60z"/>
<path d="M1033 6614 c-17 -8 -16 -39 2 -74 16 -30 38 -37 65 -20 13 8 13 14 0
52 -15 42 -35 55 -67 42z"/>
<path d="M7780 6515 c-10 -12 -11 -21 -3 -33 13 -22 45 -30 119 -31 65 -1 90
12 78 42 -7 20 -22 24 -109 33 -60 5 -73 3 -85 -11z"/>
<path d="M1118 6433 c-42 -10 2 -107 46 -101 26 4 32 32 15 65 -15 29 -37 41
-61 36z"/>
<path d="M6605 5066 c-67 -64 -77 -96 -33 -96 29 0 153 123 145 144 -12 31
-47 16 -112 -48z"/>
<path d="M6715 5009 c-61 -49 -75 -67 -68 -85 9 -24 31 -16 93 34 60 47 74 75
44 86 -20 7 -11 12 -69 -35z"/>
<path d="M6818 4908 c-49 -34 -63 -48 -63 -68 0 -39 27 -35 104 14 71 46 82
61 59 84 -19 19 -32 15 -100 -30z"/>
<path d="M6189 4892 c-19 -21 -68 -85 -109 -142 -94 -131 -285 -329 -398 -415
-153 -115 -333 -196 -526 -236 -102 -21 -124 -35 -106 -69 11 -20 17 -21 68
-15 204 25 449 124 612 248 157 119 373 360 499 556 46 73 47 74 25 95 -22 23
-28 21 -65 -22z"/>
<path d="M1024 4864 c-99 -106 -138 -214 -132 -364 3 -91 7 -104 46 -183 56
-113 136 -196 236 -243 40 -19 89 -37 108 -41 30 -4 37 -2 43 16 9 30 2 37
-88 80 -183 87 -275 236 -265 430 5 103 31 166 103 255 38 46 46 62 38 75 -19
31 -44 24 -89 -25z"/>
<path d="M3246 4338 c-3 -7 -7 -70 -11 -140 -7 -144 0 -171 43 -166 l27 3 0
155 0 155 -28 3 c-16 2 -29 -2 -31 -10z"/>
<path d="M8913 4171 c-66 -24 -101 -49 -153 -108 -60 -68 -68 -125 -19 -131
21 -2 31 5 55 45 96 154 324 179 469 51 61 -53 92 -104 111 -180 42 -161 -53
-338 -229 -427 -79 -40 -95 -56 -80 -79 18 -29 54 -25 132 15 140 71 234 194
262 345 33 182 -66 370 -238 451 -59 27 -81 32 -163 34 -75 3 -106 -1 -147
-16z"/>
<path d="M1567 3683 c-4 -3 -7 -32 -7 -62 0 -66 -17 -97 -66 -117 -59 -25 -36
-83 28 -70 41 8 80 41 102 83 20 41 21 122 0 151 -15 21 -44 29 -57 15z"/>
<path d="M8206 3559 c-18 -26 -7 -48 36 -74 23 -13 32 -14 43 -5 23 19 18 43
-13 73 -34 33 -46 34 -66 6z"/>
<path d="M8872 3348 c-30 -30 11 -85 44 -57 25 21 11 69 -21 69 -6 0 -16 -5
-23 -12z"/>
<path d="M7227 2408 c-50 -22 -73 -62 -46 -79 16 -10 33 -6 102 23 48 21 59
42 35 66 -17 17 -35 15 -91 -10z"/>
<path d="M2032 2282 c-8 -5 -12 -18 -10 -28 3 -15 18 -21 78 -31 41 -6 95 -19
119 -27 58 -21 63 -20 59 12 -3 23 -12 31 -63 51 -65 25 -162 38 -183 23z"/>
<path d="M462 898 c-6 -6 -12 -20 -12 -29 0 -34 24 -40 150 -37 104 3 125 6
134 21 8 12 8 22 0 35 -9 14 -30 17 -135 20 -88 2 -128 -1 -137 -10z"/>
<path d="M9798 885 c-13 -30 5 -58 35 -53 28 4 41 43 21 63 -22 22 -43 18 -56
-10z"/>
</g>
</svg>
